<svg xmlns="http://www.w3.org/2000/svg" viewBox="0 0 128 128"><defs><linearGradient id="g" x1="0" y1="0" x2="1" y2="1"><stop offset="0%" stop-color="#4f46e5"/><stop offset="100%" stop-color="#6366f1"/></linearGradient></defs><rect width="128" height="128" rx="24" fill="url(#g)"/><path fill="#fff" d="M64 28c-19.9 0-36 16.1-36 36s16.1 36 36 36 36-16.1 36-36S83.9 28 64 28Zm0 8c15.5 0 28 12.5 28 28S79.5 92 64 92 36 79.5 36 64s12.5-28 28-28Zm-6.4 12c-.9 0-1.6.7-1.6 1.6v32.8c0 .9.7 1.6 1.6 1.6h12.8c.9 0 1.6-.7 1.6-1.6V49.6c0-.9-.7-1.6-1.6-1.6H57.6Z"/></svg>